<!DOCTYPE svg PUBLIC "-//W3C//DTD SVG 1.1//EN" "http://www.w3.org/Graphics/SVG/1.1/DTD/svg11.dtd">
<!-- Uploaded to: SVG Repo, www.svgrepo.com, Transformed by: SVG Repo Mixer Tools -->
<svg width="64px" height="64px" viewBox="0 0 512 512" id="Layer_1" version="1.1" xml:space="preserve" xmlns="http://www.w3.org/2000/svg" xmlns:xlink="http://www.w3.org/1999/xlink" fill="#000000">
<g id="SVGRepo_bgCarrier" stroke-width="0"/>
<g id="SVGRepo_tracerCarrier" stroke-linecap="round" stroke-linejoin="round"/>
<g id="SVGRepo_iconCarrier"> <style type="text/css"> .st0{fill:#CFF1FF;} .st1{fill:#4CC3F2;} .st2{fill:#0A557F;} .st3{fill:#FFFFFF;} </style> <g> <rect class="st0" height="52.1" width="25.3" x="233.6" y="142.2"/> <polygon class="st1" points="18.9,325.4 370.2,325.4 478.5,296.1 426.3,393.3 18.8,393.3 "/> <rect class="st2" height="15" width="67.3" x="132.7" y="430.1"/> <rect class="st2" height="15" width="15" x="102.7" y="430.1"/> <rect class="st2" height="15" width="67.3" x="374.4" y="66.9"/> <rect class="st2" height="15" width="15" x="344.4" y="66.9"/> <polygon class="st1" points="177.6,209.3 314.9,209.3 314.9,227.3 256.1,227.3 256.1,242.3 358.8,242.3 358.8,260.2 314.9,260.2 314.9,310.4 177.6,310.4 "/> <path class="st2" d="M402.4,301.2v-41h-28.5v-32.9h-43.9v-32.9h-56v-15.9h33v-15h-33v-36.2h-20.1v-15c21.8-3.6,38.4-22.5,38.4-45.3 h-15c0,17.1-13.9,30.9-30.9,30.9c-17.1,0-30.9-13.9-30.9-30.9h-15c0,22.8,16.7,41.7,38.4,45.3v15h-20.1v36.2h-33v15h33v15.9h-56 v32.9h-26.7v-25.8h-15v25.8H79.2v83.1H3.9l-0.1,97.8h431.4l73-135.8L402.4,301.2z M387.4,275.2v30l-19.1,5.2h-38.4v-35.2H387.4z M233.6,142.2h25.3v52.1h-25.3V142.2z M177.6,209.3h137.3v17.9h-58.8v15h102.7v17.9h-43.9v50.2H177.6V209.3z M94.2,242.3h68.5v17.9 h-23.5v15h23.5v35.2H94.2V242.3z M370.2,366.8l82.2-22.3l-26.2,48.7H18.8l0.1-67.8h351.4l108.2-29.3l-16.3,30.3l-93.9,25.5H79.6v15 H370.2z"/> <rect class="st3" height="15" width="15" x="226.1" y="227.3"/> <rect class="st2" height="15" width="15" x="109.1" y="260.2"/> <rect class="st3" height="15" width="15" x="49.6" y="351.8"/> </g> </g>
</svg>